<mxfile host="app.diagrams.net" modified="2024-06-22T18:12:28.827Z" agent="Mozilla/5.0 (Windows NT 10.0; Win64; x64) AppleWebKit/537.36 (KHTML, like Gecko) Chrome/126.0.0.0 Safari/537.36" etag="zcD3KKH73EHeaxSoC3h0" version="22.1.16" type="device">
  <diagram name="Страница — 1" id="64oh8WUVoqdY1avm64eJ">
    <mxGraphModel dx="2518" dy="1324" grid="1" gridSize="10" guides="1" tooltips="1" connect="1" arrows="1" fold="1" page="1" pageScale="1" pageWidth="827" pageHeight="1169" math="0" shadow="0">
      <root>
        <mxCell id="0" />
        <mxCell id="1" parent="0" />
        <mxCell id="1v00uaq_smpLzd8h27oc-2" value="" style="rounded=0;whiteSpace=wrap;html=1;fillColor=#f8cecc;strokeColor=#b85450;" vertex="1" parent="1">
          <mxGeometry x="230" y="360" width="120" height="20" as="geometry" />
        </mxCell>
        <mxCell id="1v00uaq_smpLzd8h27oc-5" value="" style="rounded=0;whiteSpace=wrap;html=1;fillColor=#d5e8d4;strokeColor=#82b366;" vertex="1" parent="1">
          <mxGeometry x="230" y="340" width="120" height="20" as="geometry" />
        </mxCell>
        <mxCell id="1v00uaq_smpLzd8h27oc-7" value="" style="rounded=0;whiteSpace=wrap;html=1;fillColor=#f8cecc;strokeColor=#b85450;" vertex="1" parent="1">
          <mxGeometry x="230" y="380" width="120" height="20" as="geometry" />
        </mxCell>
        <mxCell id="1v00uaq_smpLzd8h27oc-9" value="description" style="rounded=0;whiteSpace=wrap;html=1;fillColor=#f8cecc;strokeColor=#b85450;" vertex="1" parent="1">
          <mxGeometry x="230" y="400" width="120" height="20" as="geometry" />
        </mxCell>
        <mxCell id="1v00uaq_smpLzd8h27oc-17" value="id" style="text;html=1;strokeColor=none;fillColor=none;align=center;verticalAlign=middle;whiteSpace=wrap;rounded=0;" vertex="1" parent="1">
          <mxGeometry x="230" y="360" width="120" height="20" as="geometry" />
        </mxCell>
        <mxCell id="1v00uaq_smpLzd8h27oc-24" value="name" style="text;html=1;strokeColor=none;fillColor=none;align=center;verticalAlign=middle;whiteSpace=wrap;rounded=0;" vertex="1" parent="1">
          <mxGeometry x="230" y="380" width="120" height="20" as="geometry" />
        </mxCell>
        <mxCell id="1v00uaq_smpLzd8h27oc-29" value="projects" style="text;html=1;strokeColor=none;fillColor=none;align=center;verticalAlign=middle;whiteSpace=wrap;rounded=0;" vertex="1" parent="1">
          <mxGeometry x="230" y="340" width="120" height="20" as="geometry" />
        </mxCell>
        <mxCell id="1v00uaq_smpLzd8h27oc-30" value="" style="whiteSpace=wrap;html=1;aspect=fixed;" vertex="1" parent="1">
          <mxGeometry x="510" y="350" width="120" height="120" as="geometry" />
        </mxCell>
        <mxCell id="1v00uaq_smpLzd8h27oc-31" value="" style="rounded=0;whiteSpace=wrap;html=1;fillColor=#f8cecc;strokeColor=#b85450;" vertex="1" parent="1">
          <mxGeometry x="510" y="350" width="120" height="20" as="geometry" />
        </mxCell>
        <mxCell id="1v00uaq_smpLzd8h27oc-32" value="" style="rounded=0;whiteSpace=wrap;html=1;fillColor=#d5e8d4;strokeColor=#82b366;" vertex="1" parent="1">
          <mxGeometry x="510" y="330" width="120" height="20" as="geometry" />
        </mxCell>
        <mxCell id="1v00uaq_smpLzd8h27oc-34" value="" style="rounded=0;whiteSpace=wrap;html=1;fillColor=#f8cecc;strokeColor=#b85450;" vertex="1" parent="1">
          <mxGeometry x="510" y="370" width="120" height="20" as="geometry" />
        </mxCell>
        <mxCell id="1v00uaq_smpLzd8h27oc-36" value="" style="rounded=0;whiteSpace=wrap;html=1;fillColor=#f8cecc;strokeColor=#b85450;" vertex="1" parent="1">
          <mxGeometry x="510" y="390" width="120" height="20" as="geometry" />
        </mxCell>
        <mxCell id="1v00uaq_smpLzd8h27oc-38" value="" style="rounded=0;whiteSpace=wrap;html=1;fillColor=#f8cecc;strokeColor=#b85450;" vertex="1" parent="1">
          <mxGeometry x="510" y="410" width="120" height="20" as="geometry" />
        </mxCell>
        <mxCell id="1v00uaq_smpLzd8h27oc-40" value="" style="rounded=0;whiteSpace=wrap;html=1;fillColor=#f8cecc;strokeColor=#b85450;" vertex="1" parent="1">
          <mxGeometry x="510" y="430" width="120" height="20" as="geometry" />
        </mxCell>
        <mxCell id="1v00uaq_smpLzd8h27oc-42" value="" style="rounded=0;whiteSpace=wrap;html=1;fillColor=#f8cecc;strokeColor=#b85450;" vertex="1" parent="1">
          <mxGeometry x="510" y="450" width="120" height="20" as="geometry" />
        </mxCell>
        <mxCell id="1v00uaq_smpLzd8h27oc-44" value="id" style="text;html=1;strokeColor=none;fillColor=none;align=center;verticalAlign=middle;whiteSpace=wrap;rounded=0;" vertex="1" parent="1">
          <mxGeometry x="510" y="350" width="120" height="20" as="geometry" />
        </mxCell>
        <mxCell id="1v00uaq_smpLzd8h27oc-49" value="timestamp&lt;br&gt;" style="text;html=1;strokeColor=#6c8ebf;fillColor=#dae8fc;align=center;verticalAlign=middle;whiteSpace=wrap;rounded=0;" vertex="1" parent="1">
          <mxGeometry x="445" y="430" width="65" height="20" as="geometry" />
        </mxCell>
        <mxCell id="1v00uaq_smpLzd8h27oc-97" style="edgeStyle=orthogonalEdgeStyle;rounded=0;orthogonalLoop=1;jettySize=auto;html=1;exitX=0;exitY=0.5;exitDx=0;exitDy=0;entryX=1;entryY=0.5;entryDx=0;entryDy=0;" edge="1" parent="1" source="1v00uaq_smpLzd8h27oc-50" target="1v00uaq_smpLzd8h27oc-17">
          <mxGeometry relative="1" as="geometry">
            <mxPoint x="360" y="370" as="targetPoint" />
            <Array as="points">
              <mxPoint x="430" y="460" />
              <mxPoint x="430" y="420" />
              <mxPoint x="380" y="420" />
              <mxPoint x="380" y="370" />
            </Array>
          </mxGeometry>
        </mxCell>
        <mxCell id="1v00uaq_smpLzd8h27oc-50" value="FK" style="text;html=1;strokeColor=#6c8ebf;fillColor=#dae8fc;align=center;verticalAlign=middle;whiteSpace=wrap;rounded=0;" vertex="1" parent="1">
          <mxGeometry x="470" y="450" width="40" height="20" as="geometry" />
        </mxCell>
        <mxCell id="1v00uaq_smpLzd8h27oc-51" value="title" style="text;html=1;strokeColor=none;fillColor=none;align=center;verticalAlign=middle;whiteSpace=wrap;rounded=0;" vertex="1" parent="1">
          <mxGeometry x="510" y="370" width="120" height="20" as="geometry" />
        </mxCell>
        <mxCell id="1v00uaq_smpLzd8h27oc-52" value="status_id" style="text;html=1;strokeColor=none;fillColor=none;align=center;verticalAlign=middle;whiteSpace=wrap;rounded=0;" vertex="1" parent="1">
          <mxGeometry x="510" y="390" width="120" height="20" as="geometry" />
        </mxCell>
        <mxCell id="1v00uaq_smpLzd8h27oc-53" value="priority_id" style="text;html=1;strokeColor=none;fillColor=none;align=center;verticalAlign=middle;whiteSpace=wrap;rounded=0;" vertex="1" parent="1">
          <mxGeometry x="510" y="410" width="120" height="20" as="geometry" />
        </mxCell>
        <mxCell id="1v00uaq_smpLzd8h27oc-54" value="due_date" style="text;html=1;strokeColor=none;fillColor=none;align=center;verticalAlign=middle;whiteSpace=wrap;rounded=0;" vertex="1" parent="1">
          <mxGeometry x="510" y="430" width="120" height="20" as="geometry" />
        </mxCell>
        <mxCell id="1v00uaq_smpLzd8h27oc-55" value="project_id" style="text;html=1;strokeColor=none;fillColor=none;align=center;verticalAlign=middle;whiteSpace=wrap;rounded=0;" vertex="1" parent="1">
          <mxGeometry x="510" y="450" width="120" height="20" as="geometry" />
        </mxCell>
        <mxCell id="1v00uaq_smpLzd8h27oc-56" value="tasks" style="text;html=1;strokeColor=none;fillColor=none;align=center;verticalAlign=middle;whiteSpace=wrap;rounded=0;" vertex="1" parent="1">
          <mxGeometry x="510" y="330" width="120" height="20" as="geometry" />
        </mxCell>
        <mxCell id="1v00uaq_smpLzd8h27oc-58" value="" style="rounded=0;whiteSpace=wrap;html=1;fillColor=#f8cecc;strokeColor=#b85450;" vertex="1" parent="1">
          <mxGeometry x="230" y="420" width="120" height="20" as="geometry" />
        </mxCell>
        <mxCell id="1v00uaq_smpLzd8h27oc-60" value="owner_id" style="text;html=1;strokeColor=none;fillColor=none;align=center;verticalAlign=middle;whiteSpace=wrap;rounded=0;" vertex="1" parent="1">
          <mxGeometry x="230" y="420" width="120" height="20" as="geometry" />
        </mxCell>
        <mxCell id="1v00uaq_smpLzd8h27oc-65" value="" style="rounded=0;whiteSpace=wrap;html=1;fillColor=#f8cecc;strokeColor=#b85450;" vertex="1" parent="1">
          <mxGeometry x="230" y="440" width="120" height="20" as="geometry" />
        </mxCell>
        <mxCell id="1v00uaq_smpLzd8h27oc-62" value="created_at" style="text;html=1;strokeColor=none;fillColor=none;align=center;verticalAlign=middle;whiteSpace=wrap;rounded=0;" vertex="1" parent="1">
          <mxGeometry x="230" y="440" width="120" height="20" as="geometry" />
        </mxCell>
        <mxCell id="1v00uaq_smpLzd8h27oc-67" value="updated_at" style="rounded=0;whiteSpace=wrap;html=1;fillColor=#f8cecc;strokeColor=#b85450;" vertex="1" parent="1">
          <mxGeometry x="230" y="460" width="120" height="20" as="geometry" />
        </mxCell>
        <mxCell id="1v00uaq_smpLzd8h27oc-95" value="Приоритет задачи" style="text;html=1;strokeColor=#9673a6;fillColor=#e1d5e7;align=center;verticalAlign=middle;whiteSpace=wrap;rounded=0;" vertex="1" parent="1">
          <mxGeometry x="630" y="410" width="120" height="20" as="geometry" />
        </mxCell>
        <mxCell id="1v00uaq_smpLzd8h27oc-98" value="assigned_user_id" style="text;html=1;strokeColor=#b85450;fillColor=#f8cecc;align=center;verticalAlign=middle;whiteSpace=wrap;rounded=0;" vertex="1" parent="1">
          <mxGeometry x="510" y="470" width="120" height="20" as="geometry" />
        </mxCell>
        <mxCell id="1v00uaq_smpLzd8h27oc-100" value="FK" style="text;html=1;strokeColor=#6c8ebf;fillColor=#dae8fc;align=center;verticalAlign=middle;whiteSpace=wrap;rounded=0;" vertex="1" parent="1">
          <mxGeometry x="470" y="410" width="40" height="20" as="geometry" />
        </mxCell>
        <mxCell id="1v00uaq_smpLzd8h27oc-101" value="FK" style="text;html=1;strokeColor=#6c8ebf;fillColor=#dae8fc;align=center;verticalAlign=middle;whiteSpace=wrap;rounded=0;" vertex="1" parent="1">
          <mxGeometry x="470" y="390" width="40" height="20" as="geometry" />
        </mxCell>
        <mxCell id="1v00uaq_smpLzd8h27oc-102" value="PK" style="text;html=1;strokeColor=#6c8ebf;fillColor=#dae8fc;align=center;verticalAlign=middle;whiteSpace=wrap;rounded=0;" vertex="1" parent="1">
          <mxGeometry x="470" y="350" width="40" height="20" as="geometry" />
        </mxCell>
        <mxCell id="1v00uaq_smpLzd8h27oc-103" value="varchar" style="text;html=1;strokeColor=#6c8ebf;fillColor=#dae8fc;align=center;verticalAlign=middle;whiteSpace=wrap;rounded=0;" vertex="1" parent="1">
          <mxGeometry x="460" y="370" width="50" height="20" as="geometry" />
        </mxCell>
        <mxCell id="1v00uaq_smpLzd8h27oc-104" value="varchar" style="text;html=1;strokeColor=#6c8ebf;fillColor=#dae8fc;align=center;verticalAlign=middle;whiteSpace=wrap;rounded=0;" vertex="1" parent="1">
          <mxGeometry x="180" y="380" width="50" height="20" as="geometry" />
        </mxCell>
        <mxCell id="1v00uaq_smpLzd8h27oc-105" value="text" style="text;html=1;strokeColor=#6c8ebf;fillColor=#dae8fc;align=center;verticalAlign=middle;whiteSpace=wrap;rounded=0;" vertex="1" parent="1">
          <mxGeometry x="190" y="400" width="40" height="20" as="geometry" />
        </mxCell>
        <mxCell id="1v00uaq_smpLzd8h27oc-106" value="FK" style="text;html=1;strokeColor=#6c8ebf;fillColor=#dae8fc;align=center;verticalAlign=middle;whiteSpace=wrap;rounded=0;" vertex="1" parent="1">
          <mxGeometry x="190" y="420" width="40" height="20" as="geometry" />
        </mxCell>
        <mxCell id="1v00uaq_smpLzd8h27oc-108" value="timestamp&lt;br&gt;" style="text;html=1;strokeColor=#6c8ebf;fillColor=#dae8fc;align=center;verticalAlign=middle;whiteSpace=wrap;rounded=0;" vertex="1" parent="1">
          <mxGeometry x="165" y="440" width="65" height="20" as="geometry" />
        </mxCell>
        <mxCell id="1v00uaq_smpLzd8h27oc-109" value="timestamp&lt;br&gt;" style="text;html=1;strokeColor=#6c8ebf;fillColor=#dae8fc;align=center;verticalAlign=middle;whiteSpace=wrap;rounded=0;" vertex="1" parent="1">
          <mxGeometry x="165" y="460" width="65" height="20" as="geometry" />
        </mxCell>
        <mxCell id="1v00uaq_smpLzd8h27oc-110" value="PK" style="text;html=1;strokeColor=#6c8ebf;fillColor=#dae8fc;align=center;verticalAlign=middle;whiteSpace=wrap;rounded=0;" vertex="1" parent="1">
          <mxGeometry x="190" y="360" width="40" height="20" as="geometry" />
        </mxCell>
        <mxCell id="1v00uaq_smpLzd8h27oc-113" value="" style="rounded=0;whiteSpace=wrap;html=1;fillColor=#f8cecc;strokeColor=#b85450;" vertex="1" parent="1">
          <mxGeometry x="510" y="490" width="120" height="20" as="geometry" />
        </mxCell>
        <mxCell id="1v00uaq_smpLzd8h27oc-114" value="created_at" style="text;html=1;strokeColor=none;fillColor=none;align=center;verticalAlign=middle;whiteSpace=wrap;rounded=0;" vertex="1" parent="1">
          <mxGeometry x="510" y="490" width="120" height="20" as="geometry" />
        </mxCell>
        <mxCell id="1v00uaq_smpLzd8h27oc-115" value="updated_at" style="rounded=0;whiteSpace=wrap;html=1;fillColor=#f8cecc;strokeColor=#b85450;" vertex="1" parent="1">
          <mxGeometry x="510" y="510" width="120" height="20" as="geometry" />
        </mxCell>
        <mxCell id="1v00uaq_smpLzd8h27oc-116" value="timestamp&lt;br&gt;" style="text;html=1;strokeColor=#6c8ebf;fillColor=#dae8fc;align=center;verticalAlign=middle;whiteSpace=wrap;rounded=0;" vertex="1" parent="1">
          <mxGeometry x="445" y="490" width="65" height="20" as="geometry" />
        </mxCell>
        <mxCell id="1v00uaq_smpLzd8h27oc-117" value="timestamp&lt;br&gt;" style="text;html=1;strokeColor=#6c8ebf;fillColor=#dae8fc;align=center;verticalAlign=middle;whiteSpace=wrap;rounded=0;" vertex="1" parent="1">
          <mxGeometry x="445" y="510" width="65" height="20" as="geometry" />
        </mxCell>
        <mxCell id="1v00uaq_smpLzd8h27oc-118" value="FK" style="text;html=1;strokeColor=#6c8ebf;fillColor=#dae8fc;align=center;verticalAlign=middle;whiteSpace=wrap;rounded=0;" vertex="1" parent="1">
          <mxGeometry x="470" y="470" width="40" height="20" as="geometry" />
        </mxCell>
        <mxCell id="1v00uaq_smpLzd8h27oc-119" value="Юзер чья задача" style="text;html=1;strokeColor=#9673a6;fillColor=#e1d5e7;align=center;verticalAlign=middle;whiteSpace=wrap;rounded=0;" vertex="1" parent="1">
          <mxGeometry x="630" y="470" width="120" height="20" as="geometry" />
        </mxCell>
        <mxCell id="1v00uaq_smpLzd8h27oc-120" value="" style="rounded=0;whiteSpace=wrap;html=1;fillColor=#f8cecc;strokeColor=#b85450;" vertex="1" parent="1">
          <mxGeometry x="230" y="570" width="120" height="20" as="geometry" />
        </mxCell>
        <mxCell id="1v00uaq_smpLzd8h27oc-121" value="" style="rounded=0;whiteSpace=wrap;html=1;fillColor=#d5e8d4;strokeColor=#82b366;" vertex="1" parent="1">
          <mxGeometry x="230" y="550" width="120" height="20" as="geometry" />
        </mxCell>
        <mxCell id="1v00uaq_smpLzd8h27oc-122" value="" style="rounded=0;whiteSpace=wrap;html=1;fillColor=#f8cecc;strokeColor=#b85450;" vertex="1" parent="1">
          <mxGeometry x="230" y="590" width="120" height="20" as="geometry" />
        </mxCell>
        <mxCell id="1v00uaq_smpLzd8h27oc-258" style="edgeStyle=orthogonalEdgeStyle;rounded=0;orthogonalLoop=1;jettySize=auto;html=1;exitX=1;exitY=0.5;exitDx=0;exitDy=0;entryX=1;entryY=0.5;entryDx=0;entryDy=0;" edge="1" parent="1" source="1v00uaq_smpLzd8h27oc-123" target="1v00uaq_smpLzd8h27oc-202">
          <mxGeometry relative="1" as="geometry">
            <Array as="points">
              <mxPoint x="440" y="620" />
              <mxPoint x="440" y="580" />
              <mxPoint x="995" y="580" />
              <mxPoint x="995" y="140" />
            </Array>
          </mxGeometry>
        </mxCell>
        <mxCell id="1v00uaq_smpLzd8h27oc-123" value="user_id" style="rounded=0;whiteSpace=wrap;html=1;fillColor=#f8cecc;strokeColor=#b85450;" vertex="1" parent="1">
          <mxGeometry x="230" y="610" width="120" height="20" as="geometry" />
        </mxCell>
        <mxCell id="1v00uaq_smpLzd8h27oc-124" value="id" style="text;html=1;strokeColor=none;fillColor=none;align=center;verticalAlign=middle;whiteSpace=wrap;rounded=0;" vertex="1" parent="1">
          <mxGeometry x="230" y="570" width="120" height="20" as="geometry" />
        </mxCell>
        <mxCell id="1v00uaq_smpLzd8h27oc-257" style="edgeStyle=orthogonalEdgeStyle;rounded=0;orthogonalLoop=1;jettySize=auto;html=1;exitX=1;exitY=0.5;exitDx=0;exitDy=0;entryX=1;entryY=0.5;entryDx=0;entryDy=0;" edge="1" parent="1" source="1v00uaq_smpLzd8h27oc-125" target="1v00uaq_smpLzd8h27oc-44">
          <mxGeometry relative="1" as="geometry">
            <Array as="points">
              <mxPoint x="410" y="600" />
              <mxPoint x="410" y="570" />
              <mxPoint x="650" y="570" />
              <mxPoint x="650" y="360" />
            </Array>
          </mxGeometry>
        </mxCell>
        <mxCell id="1v00uaq_smpLzd8h27oc-125" value="task_id" style="text;html=1;strokeColor=none;fillColor=none;align=center;verticalAlign=middle;whiteSpace=wrap;rounded=0;" vertex="1" parent="1">
          <mxGeometry x="230" y="590" width="120" height="20" as="geometry" />
        </mxCell>
        <mxCell id="1v00uaq_smpLzd8h27oc-126" value="task_comments" style="text;html=1;strokeColor=none;fillColor=none;align=center;verticalAlign=middle;whiteSpace=wrap;rounded=0;" vertex="1" parent="1">
          <mxGeometry x="230" y="550" width="120" height="20" as="geometry" />
        </mxCell>
        <mxCell id="1v00uaq_smpLzd8h27oc-127" value="" style="rounded=0;whiteSpace=wrap;html=1;fillColor=#f8cecc;strokeColor=#b85450;" vertex="1" parent="1">
          <mxGeometry x="230" y="630" width="120" height="20" as="geometry" />
        </mxCell>
        <mxCell id="1v00uaq_smpLzd8h27oc-128" value="comment" style="text;html=1;strokeColor=none;fillColor=none;align=center;verticalAlign=middle;whiteSpace=wrap;rounded=0;" vertex="1" parent="1">
          <mxGeometry x="230" y="630" width="120" height="20" as="geometry" />
        </mxCell>
        <mxCell id="1v00uaq_smpLzd8h27oc-129" value="" style="rounded=0;whiteSpace=wrap;html=1;fillColor=#f8cecc;strokeColor=#b85450;" vertex="1" parent="1">
          <mxGeometry x="230" y="650" width="120" height="20" as="geometry" />
        </mxCell>
        <mxCell id="1v00uaq_smpLzd8h27oc-130" value="created_at" style="text;html=1;strokeColor=none;fillColor=none;align=center;verticalAlign=middle;whiteSpace=wrap;rounded=0;" vertex="1" parent="1">
          <mxGeometry x="230" y="650" width="120" height="20" as="geometry" />
        </mxCell>
        <mxCell id="1v00uaq_smpLzd8h27oc-131" value="updated_at" style="rounded=0;whiteSpace=wrap;html=1;fillColor=#f8cecc;strokeColor=#b85450;" vertex="1" parent="1">
          <mxGeometry x="230" y="670" width="120" height="20" as="geometry" />
        </mxCell>
        <mxCell id="1v00uaq_smpLzd8h27oc-132" value="PK" style="text;html=1;strokeColor=#6c8ebf;fillColor=#dae8fc;align=center;verticalAlign=middle;whiteSpace=wrap;rounded=0;" vertex="1" parent="1">
          <mxGeometry x="190" y="570" width="40" height="20" as="geometry" />
        </mxCell>
        <mxCell id="1v00uaq_smpLzd8h27oc-133" value="FK" style="text;html=1;strokeColor=#6c8ebf;fillColor=#dae8fc;align=center;verticalAlign=middle;whiteSpace=wrap;rounded=0;" vertex="1" parent="1">
          <mxGeometry x="190" y="590" width="40" height="20" as="geometry" />
        </mxCell>
        <mxCell id="1v00uaq_smpLzd8h27oc-134" value="timestamp&lt;br&gt;" style="text;html=1;strokeColor=#6c8ebf;fillColor=#dae8fc;align=center;verticalAlign=middle;whiteSpace=wrap;rounded=0;" vertex="1" parent="1">
          <mxGeometry x="165" y="650" width="65" height="20" as="geometry" />
        </mxCell>
        <mxCell id="1v00uaq_smpLzd8h27oc-135" value="timestamp&lt;br&gt;" style="text;html=1;strokeColor=#6c8ebf;fillColor=#dae8fc;align=center;verticalAlign=middle;whiteSpace=wrap;rounded=0;" vertex="1" parent="1">
          <mxGeometry x="165" y="670" width="65" height="20" as="geometry" />
        </mxCell>
        <mxCell id="1v00uaq_smpLzd8h27oc-136" value="FK" style="text;html=1;strokeColor=#6c8ebf;fillColor=#dae8fc;align=center;verticalAlign=middle;whiteSpace=wrap;rounded=0;" vertex="1" parent="1">
          <mxGeometry x="190" y="610" width="40" height="20" as="geometry" />
        </mxCell>
        <mxCell id="1v00uaq_smpLzd8h27oc-138" value="text" style="text;html=1;strokeColor=#6c8ebf;fillColor=#dae8fc;align=center;verticalAlign=middle;whiteSpace=wrap;rounded=0;" vertex="1" parent="1">
          <mxGeometry x="190" y="630" width="40" height="20" as="geometry" />
        </mxCell>
        <mxCell id="1v00uaq_smpLzd8h27oc-139" value="" style="rounded=0;whiteSpace=wrap;html=1;fillColor=#f8cecc;strokeColor=#b85450;" vertex="1" parent="1">
          <mxGeometry x="985" y="610" width="120" height="20" as="geometry" />
        </mxCell>
        <mxCell id="1v00uaq_smpLzd8h27oc-140" value="" style="rounded=0;whiteSpace=wrap;html=1;fillColor=#d5e8d4;strokeColor=#82b366;" vertex="1" parent="1">
          <mxGeometry x="985" y="590" width="120" height="20" as="geometry" />
        </mxCell>
        <mxCell id="1v00uaq_smpLzd8h27oc-141" value="" style="rounded=0;whiteSpace=wrap;html=1;fillColor=#f8cecc;strokeColor=#b85450;" vertex="1" parent="1">
          <mxGeometry x="985" y="630" width="120" height="20" as="geometry" />
        </mxCell>
        <mxCell id="1v00uaq_smpLzd8h27oc-142" value="user_id" style="rounded=0;whiteSpace=wrap;html=1;fillColor=#f8cecc;strokeColor=#b85450;" vertex="1" parent="1">
          <mxGeometry x="985" y="650" width="120" height="20" as="geometry" />
        </mxCell>
        <mxCell id="1v00uaq_smpLzd8h27oc-143" value="id" style="text;html=1;strokeColor=none;fillColor=none;align=center;verticalAlign=middle;whiteSpace=wrap;rounded=0;" vertex="1" parent="1">
          <mxGeometry x="985" y="610" width="120" height="20" as="geometry" />
        </mxCell>
        <mxCell id="1v00uaq_smpLzd8h27oc-144" value="task_id" style="text;html=1;strokeColor=none;fillColor=none;align=center;verticalAlign=middle;whiteSpace=wrap;rounded=0;" vertex="1" parent="1">
          <mxGeometry x="985" y="630" width="120" height="20" as="geometry" />
        </mxCell>
        <mxCell id="1v00uaq_smpLzd8h27oc-145" value="actions" style="text;html=1;strokeColor=none;fillColor=none;align=center;verticalAlign=middle;whiteSpace=wrap;rounded=0;" vertex="1" parent="1">
          <mxGeometry x="985" y="590" width="120" height="20" as="geometry" />
        </mxCell>
        <mxCell id="1v00uaq_smpLzd8h27oc-146" value="" style="rounded=0;whiteSpace=wrap;html=1;fillColor=#f8cecc;strokeColor=#b85450;" vertex="1" parent="1">
          <mxGeometry x="985" y="670" width="120" height="20" as="geometry" />
        </mxCell>
        <mxCell id="1v00uaq_smpLzd8h27oc-147" value="comment" style="text;html=1;strokeColor=none;fillColor=none;align=center;verticalAlign=middle;whiteSpace=wrap;rounded=0;" vertex="1" parent="1">
          <mxGeometry x="985" y="670" width="120" height="20" as="geometry" />
        </mxCell>
        <mxCell id="1v00uaq_smpLzd8h27oc-148" value="" style="rounded=0;whiteSpace=wrap;html=1;fillColor=#f8cecc;strokeColor=#b85450;" vertex="1" parent="1">
          <mxGeometry x="985" y="690" width="120" height="20" as="geometry" />
        </mxCell>
        <mxCell id="1v00uaq_smpLzd8h27oc-149" value="created_at" style="text;html=1;strokeColor=none;fillColor=none;align=center;verticalAlign=middle;whiteSpace=wrap;rounded=0;" vertex="1" parent="1">
          <mxGeometry x="985" y="690" width="120" height="20" as="geometry" />
        </mxCell>
        <mxCell id="1v00uaq_smpLzd8h27oc-150" value="updated_at" style="rounded=0;whiteSpace=wrap;html=1;fillColor=#f8cecc;strokeColor=#b85450;" vertex="1" parent="1">
          <mxGeometry x="985" y="710" width="120" height="20" as="geometry" />
        </mxCell>
        <mxCell id="1v00uaq_smpLzd8h27oc-151" value="PK" style="text;html=1;strokeColor=#6c8ebf;fillColor=#dae8fc;align=center;verticalAlign=middle;whiteSpace=wrap;rounded=0;" vertex="1" parent="1">
          <mxGeometry x="945" y="610" width="40" height="20" as="geometry" />
        </mxCell>
        <mxCell id="1v00uaq_smpLzd8h27oc-152" value="FK" style="text;html=1;strokeColor=#6c8ebf;fillColor=#dae8fc;align=center;verticalAlign=middle;whiteSpace=wrap;rounded=0;" vertex="1" parent="1">
          <mxGeometry x="945" y="630" width="40" height="20" as="geometry" />
        </mxCell>
        <mxCell id="1v00uaq_smpLzd8h27oc-153" value="timestamp&lt;br&gt;" style="text;html=1;strokeColor=#6c8ebf;fillColor=#dae8fc;align=center;verticalAlign=middle;whiteSpace=wrap;rounded=0;" vertex="1" parent="1">
          <mxGeometry x="920" y="690" width="65" height="20" as="geometry" />
        </mxCell>
        <mxCell id="1v00uaq_smpLzd8h27oc-154" value="timestamp&lt;br&gt;" style="text;html=1;strokeColor=#6c8ebf;fillColor=#dae8fc;align=center;verticalAlign=middle;whiteSpace=wrap;rounded=0;" vertex="1" parent="1">
          <mxGeometry x="920" y="710" width="65" height="20" as="geometry" />
        </mxCell>
        <mxCell id="1v00uaq_smpLzd8h27oc-155" value="FK" style="text;html=1;strokeColor=#6c8ebf;fillColor=#dae8fc;align=center;verticalAlign=middle;whiteSpace=wrap;rounded=0;" vertex="1" parent="1">
          <mxGeometry x="945" y="650" width="40" height="20" as="geometry" />
        </mxCell>
        <mxCell id="1v00uaq_smpLzd8h27oc-156" value="text" style="text;html=1;strokeColor=#6c8ebf;fillColor=#dae8fc;align=center;verticalAlign=middle;whiteSpace=wrap;rounded=0;" vertex="1" parent="1">
          <mxGeometry x="945" y="670" width="40" height="20" as="geometry" />
        </mxCell>
        <mxCell id="1v00uaq_smpLzd8h27oc-157" value="Действи с задачами" style="text;html=1;strokeColor=#9673a6;fillColor=#e1d5e7;align=center;verticalAlign=middle;whiteSpace=wrap;rounded=0;" vertex="1" parent="1">
          <mxGeometry x="1105" y="590" width="120" height="20" as="geometry" />
        </mxCell>
        <mxCell id="1v00uaq_smpLzd8h27oc-158" value="" style="rounded=0;whiteSpace=wrap;html=1;fillColor=#f8cecc;strokeColor=#b85450;" vertex="1" parent="1">
          <mxGeometry x="525" y="610" width="120" height="20" as="geometry" />
        </mxCell>
        <mxCell id="1v00uaq_smpLzd8h27oc-159" value="" style="rounded=0;whiteSpace=wrap;html=1;fillColor=#d5e8d4;strokeColor=#82b366;" vertex="1" parent="1">
          <mxGeometry x="525" y="590" width="120" height="20" as="geometry" />
        </mxCell>
        <mxCell id="1v00uaq_smpLzd8h27oc-160" value="" style="rounded=0;whiteSpace=wrap;html=1;fillColor=#f8cecc;strokeColor=#b85450;" vertex="1" parent="1">
          <mxGeometry x="525" y="630" width="120" height="20" as="geometry" />
        </mxCell>
        <mxCell id="1v00uaq_smpLzd8h27oc-161" value="user_id" style="rounded=0;whiteSpace=wrap;html=1;fillColor=#f8cecc;strokeColor=#b85450;" vertex="1" parent="1">
          <mxGeometry x="525" y="650" width="120" height="20" as="geometry" />
        </mxCell>
        <mxCell id="1v00uaq_smpLzd8h27oc-162" value="id" style="text;html=1;strokeColor=none;fillColor=none;align=center;verticalAlign=middle;whiteSpace=wrap;rounded=0;" vertex="1" parent="1">
          <mxGeometry x="525" y="610" width="120" height="20" as="geometry" />
        </mxCell>
        <mxCell id="1v00uaq_smpLzd8h27oc-163" value="task_id" style="text;html=1;strokeColor=none;fillColor=none;align=center;verticalAlign=middle;whiteSpace=wrap;rounded=0;" vertex="1" parent="1">
          <mxGeometry x="525" y="630" width="120" height="20" as="geometry" />
        </mxCell>
        <mxCell id="1v00uaq_smpLzd8h27oc-164" value="task_logs" style="text;html=1;strokeColor=none;fillColor=none;align=center;verticalAlign=middle;whiteSpace=wrap;rounded=0;" vertex="1" parent="1">
          <mxGeometry x="525" y="590" width="120" height="20" as="geometry" />
        </mxCell>
        <mxCell id="1v00uaq_smpLzd8h27oc-165" value="" style="rounded=0;whiteSpace=wrap;html=1;fillColor=#f8cecc;strokeColor=#b85450;" vertex="1" parent="1">
          <mxGeometry x="525" y="670" width="120" height="20" as="geometry" />
        </mxCell>
        <mxCell id="1v00uaq_smpLzd8h27oc-176" style="edgeStyle=orthogonalEdgeStyle;rounded=0;orthogonalLoop=1;jettySize=auto;html=1;exitX=1;exitY=0.5;exitDx=0;exitDy=0;entryX=0;entryY=0.5;entryDx=0;entryDy=0;" edge="1" parent="1" source="1v00uaq_smpLzd8h27oc-166" target="1v00uaq_smpLzd8h27oc-151">
          <mxGeometry relative="1" as="geometry" />
        </mxCell>
        <mxCell id="1v00uaq_smpLzd8h27oc-166" value="action_id" style="text;html=1;strokeColor=none;fillColor=none;align=center;verticalAlign=middle;whiteSpace=wrap;rounded=0;" vertex="1" parent="1">
          <mxGeometry x="525" y="670" width="120" height="20" as="geometry" />
        </mxCell>
        <mxCell id="1v00uaq_smpLzd8h27oc-167" value="" style="rounded=0;whiteSpace=wrap;html=1;fillColor=#f8cecc;strokeColor=#b85450;" vertex="1" parent="1">
          <mxGeometry x="525" y="690" width="120" height="20" as="geometry" />
        </mxCell>
        <mxCell id="1v00uaq_smpLzd8h27oc-168" value="created_at" style="text;html=1;strokeColor=none;fillColor=none;align=center;verticalAlign=middle;whiteSpace=wrap;rounded=0;" vertex="1" parent="1">
          <mxGeometry x="525" y="690" width="120" height="20" as="geometry" />
        </mxCell>
        <mxCell id="1v00uaq_smpLzd8h27oc-169" value="updated_at" style="rounded=0;whiteSpace=wrap;html=1;fillColor=#f8cecc;strokeColor=#b85450;" vertex="1" parent="1">
          <mxGeometry x="525" y="710" width="120" height="20" as="geometry" />
        </mxCell>
        <mxCell id="1v00uaq_smpLzd8h27oc-170" value="PK" style="text;html=1;strokeColor=#6c8ebf;fillColor=#dae8fc;align=center;verticalAlign=middle;whiteSpace=wrap;rounded=0;" vertex="1" parent="1">
          <mxGeometry x="485" y="610" width="40" height="20" as="geometry" />
        </mxCell>
        <mxCell id="1v00uaq_smpLzd8h27oc-171" value="FK" style="text;html=1;strokeColor=#6c8ebf;fillColor=#dae8fc;align=center;verticalAlign=middle;whiteSpace=wrap;rounded=0;" vertex="1" parent="1">
          <mxGeometry x="485" y="630" width="40" height="20" as="geometry" />
        </mxCell>
        <mxCell id="1v00uaq_smpLzd8h27oc-172" value="timestamp&lt;br&gt;" style="text;html=1;strokeColor=#6c8ebf;fillColor=#dae8fc;align=center;verticalAlign=middle;whiteSpace=wrap;rounded=0;" vertex="1" parent="1">
          <mxGeometry x="460" y="690" width="65" height="20" as="geometry" />
        </mxCell>
        <mxCell id="1v00uaq_smpLzd8h27oc-173" value="timestamp&lt;br&gt;" style="text;html=1;strokeColor=#6c8ebf;fillColor=#dae8fc;align=center;verticalAlign=middle;whiteSpace=wrap;rounded=0;" vertex="1" parent="1">
          <mxGeometry x="460" y="710" width="65" height="20" as="geometry" />
        </mxCell>
        <mxCell id="1v00uaq_smpLzd8h27oc-174" value="FK" style="text;html=1;strokeColor=#6c8ebf;fillColor=#dae8fc;align=center;verticalAlign=middle;whiteSpace=wrap;rounded=0;" vertex="1" parent="1">
          <mxGeometry x="485" y="650" width="40" height="20" as="geometry" />
        </mxCell>
        <mxCell id="1v00uaq_smpLzd8h27oc-175" value="FK" style="text;html=1;strokeColor=#6c8ebf;fillColor=#dae8fc;align=center;verticalAlign=middle;whiteSpace=wrap;rounded=0;" vertex="1" parent="1">
          <mxGeometry x="485" y="670" width="40" height="20" as="geometry" />
        </mxCell>
        <mxCell id="1v00uaq_smpLzd8h27oc-177" value="" style="rounded=0;whiteSpace=wrap;html=1;fillColor=#f8cecc;strokeColor=#b85450;" vertex="1" parent="1">
          <mxGeometry x="405" y="110" width="120" height="20" as="geometry" />
        </mxCell>
        <mxCell id="1v00uaq_smpLzd8h27oc-178" value="" style="rounded=0;whiteSpace=wrap;html=1;fillColor=#d5e8d4;strokeColor=#82b366;" vertex="1" parent="1">
          <mxGeometry x="405" y="90" width="120" height="20" as="geometry" />
        </mxCell>
        <mxCell id="1v00uaq_smpLzd8h27oc-179" value="" style="rounded=0;whiteSpace=wrap;html=1;fillColor=#f8cecc;strokeColor=#b85450;" vertex="1" parent="1">
          <mxGeometry x="405" y="130" width="120" height="20" as="geometry" />
        </mxCell>
        <mxCell id="1v00uaq_smpLzd8h27oc-220" style="edgeStyle=orthogonalEdgeStyle;rounded=0;orthogonalLoop=1;jettySize=auto;html=1;exitX=1;exitY=0.5;exitDx=0;exitDy=0;entryX=1;entryY=0.5;entryDx=0;entryDy=0;" edge="1" parent="1" source="1v00uaq_smpLzd8h27oc-180" target="1v00uaq_smpLzd8h27oc-202">
          <mxGeometry relative="1" as="geometry">
            <mxPoint x="540" y="90" as="sourcePoint" />
            <mxPoint x="1000" y="150" as="targetPoint" />
            <Array as="points">
              <mxPoint x="690" y="160" />
              <mxPoint x="690" y="90" />
              <mxPoint x="995" y="90" />
              <mxPoint x="995" y="140" />
            </Array>
          </mxGeometry>
        </mxCell>
        <mxCell id="1v00uaq_smpLzd8h27oc-180" value="user_id" style="rounded=0;whiteSpace=wrap;html=1;fillColor=#f8cecc;strokeColor=#b85450;" vertex="1" parent="1">
          <mxGeometry x="405" y="150" width="120" height="20" as="geometry" />
        </mxCell>
        <mxCell id="1v00uaq_smpLzd8h27oc-181" value="id" style="text;html=1;strokeColor=none;fillColor=none;align=center;verticalAlign=middle;whiteSpace=wrap;rounded=0;" vertex="1" parent="1">
          <mxGeometry x="405" y="110" width="120" height="20" as="geometry" />
        </mxCell>
        <mxCell id="1v00uaq_smpLzd8h27oc-182" value="project_id" style="text;html=1;strokeColor=none;fillColor=none;align=center;verticalAlign=middle;whiteSpace=wrap;rounded=0;" vertex="1" parent="1">
          <mxGeometry x="405" y="130" width="120" height="20" as="geometry" />
        </mxCell>
        <mxCell id="1v00uaq_smpLzd8h27oc-183" value="user_projects" style="text;html=1;strokeColor=none;fillColor=none;align=center;verticalAlign=middle;whiteSpace=wrap;rounded=0;" vertex="1" parent="1">
          <mxGeometry x="405" y="90" width="120" height="20" as="geometry" />
        </mxCell>
        <mxCell id="1v00uaq_smpLzd8h27oc-186" value="" style="rounded=0;whiteSpace=wrap;html=1;fillColor=#f8cecc;strokeColor=#b85450;" vertex="1" parent="1">
          <mxGeometry x="405" y="170" width="120" height="20" as="geometry" />
        </mxCell>
        <mxCell id="1v00uaq_smpLzd8h27oc-187" value="created_at" style="text;html=1;strokeColor=none;fillColor=none;align=center;verticalAlign=middle;whiteSpace=wrap;rounded=0;" vertex="1" parent="1">
          <mxGeometry x="405" y="170" width="120" height="20" as="geometry" />
        </mxCell>
        <mxCell id="1v00uaq_smpLzd8h27oc-188" value="updated_at" style="rounded=0;whiteSpace=wrap;html=1;fillColor=#f8cecc;strokeColor=#b85450;" vertex="1" parent="1">
          <mxGeometry x="405" y="190" width="120" height="20" as="geometry" />
        </mxCell>
        <mxCell id="1v00uaq_smpLzd8h27oc-192" value="timestamp&lt;br&gt;" style="text;html=1;strokeColor=#6c8ebf;fillColor=#dae8fc;align=center;verticalAlign=middle;whiteSpace=wrap;rounded=0;" vertex="1" parent="1">
          <mxGeometry x="340" y="170" width="65" height="20" as="geometry" />
        </mxCell>
        <mxCell id="1v00uaq_smpLzd8h27oc-193" value="timestamp&lt;br&gt;" style="text;html=1;strokeColor=#6c8ebf;fillColor=#dae8fc;align=center;verticalAlign=middle;whiteSpace=wrap;rounded=0;" vertex="1" parent="1">
          <mxGeometry x="340" y="190" width="65" height="20" as="geometry" />
        </mxCell>
        <mxCell id="1v00uaq_smpLzd8h27oc-194" value="PK" style="text;html=1;strokeColor=#6c8ebf;fillColor=#dae8fc;align=center;verticalAlign=middle;whiteSpace=wrap;rounded=0;" vertex="1" parent="1">
          <mxGeometry x="365" y="110" width="40" height="20" as="geometry" />
        </mxCell>
        <mxCell id="1v00uaq_smpLzd8h27oc-197" style="edgeStyle=orthogonalEdgeStyle;rounded=0;orthogonalLoop=1;jettySize=auto;html=1;exitX=0;exitY=0.5;exitDx=0;exitDy=0;entryX=1;entryY=0.5;entryDx=0;entryDy=0;" edge="1" parent="1" source="1v00uaq_smpLzd8h27oc-195" target="1v00uaq_smpLzd8h27oc-17">
          <mxGeometry relative="1" as="geometry">
            <Array as="points">
              <mxPoint x="300" y="140" />
              <mxPoint x="300" y="255" />
              <mxPoint x="370" y="255" />
              <mxPoint x="370" y="370" />
            </Array>
          </mxGeometry>
        </mxCell>
        <mxCell id="1v00uaq_smpLzd8h27oc-195" value="FK" style="text;html=1;strokeColor=#6c8ebf;fillColor=#dae8fc;align=center;verticalAlign=middle;whiteSpace=wrap;rounded=0;" vertex="1" parent="1">
          <mxGeometry x="365" y="130" width="40" height="20" as="geometry" />
        </mxCell>
        <mxCell id="1v00uaq_smpLzd8h27oc-196" value="FK" style="text;html=1;strokeColor=#6c8ebf;fillColor=#dae8fc;align=center;verticalAlign=middle;whiteSpace=wrap;rounded=0;" vertex="1" parent="1">
          <mxGeometry x="365" y="150" width="40" height="20" as="geometry" />
        </mxCell>
        <mxCell id="1v00uaq_smpLzd8h27oc-198" value="" style="rounded=0;whiteSpace=wrap;html=1;fillColor=#f8cecc;strokeColor=#b85450;" vertex="1" parent="1">
          <mxGeometry x="855" y="130" width="120" height="20" as="geometry" />
        </mxCell>
        <mxCell id="1v00uaq_smpLzd8h27oc-199" value="" style="rounded=0;whiteSpace=wrap;html=1;fillColor=#d5e8d4;strokeColor=#82b366;" vertex="1" parent="1">
          <mxGeometry x="855" y="110" width="120" height="20" as="geometry" />
        </mxCell>
        <mxCell id="1v00uaq_smpLzd8h27oc-200" value="" style="rounded=0;whiteSpace=wrap;html=1;fillColor=#f8cecc;strokeColor=#b85450;" vertex="1" parent="1">
          <mxGeometry x="855" y="150" width="120" height="20" as="geometry" />
        </mxCell>
        <mxCell id="1v00uaq_smpLzd8h27oc-201" value="email" style="rounded=0;whiteSpace=wrap;html=1;fillColor=#f8cecc;strokeColor=#b85450;" vertex="1" parent="1">
          <mxGeometry x="855" y="170" width="120" height="20" as="geometry" />
        </mxCell>
        <mxCell id="1v00uaq_smpLzd8h27oc-202" value="id" style="text;html=1;strokeColor=none;fillColor=none;align=center;verticalAlign=middle;whiteSpace=wrap;rounded=0;" vertex="1" parent="1">
          <mxGeometry x="855" y="130" width="120" height="20" as="geometry" />
        </mxCell>
        <mxCell id="1v00uaq_smpLzd8h27oc-203" value="username" style="text;html=1;strokeColor=none;fillColor=none;align=center;verticalAlign=middle;whiteSpace=wrap;rounded=0;" vertex="1" parent="1">
          <mxGeometry x="855" y="150" width="120" height="20" as="geometry" />
        </mxCell>
        <mxCell id="1v00uaq_smpLzd8h27oc-204" value="users" style="text;html=1;strokeColor=none;fillColor=none;align=center;verticalAlign=middle;whiteSpace=wrap;rounded=0;" vertex="1" parent="1">
          <mxGeometry x="855" y="110" width="120" height="20" as="geometry" />
        </mxCell>
        <mxCell id="1v00uaq_smpLzd8h27oc-205" value="" style="rounded=0;whiteSpace=wrap;html=1;fillColor=#f8cecc;strokeColor=#b85450;" vertex="1" parent="1">
          <mxGeometry x="855" y="190" width="120" height="20" as="geometry" />
        </mxCell>
        <mxCell id="1v00uaq_smpLzd8h27oc-206" value="password" style="text;html=1;strokeColor=none;fillColor=none;align=center;verticalAlign=middle;whiteSpace=wrap;rounded=0;" vertex="1" parent="1">
          <mxGeometry x="855" y="190" width="120" height="20" as="geometry" />
        </mxCell>
        <mxCell id="1v00uaq_smpLzd8h27oc-207" value="" style="rounded=0;whiteSpace=wrap;html=1;fillColor=#f8cecc;strokeColor=#b85450;" vertex="1" parent="1">
          <mxGeometry x="855" y="210" width="120" height="20" as="geometry" />
        </mxCell>
        <mxCell id="1v00uaq_smpLzd8h27oc-208" value="created_at" style="text;html=1;strokeColor=none;fillColor=none;align=center;verticalAlign=middle;whiteSpace=wrap;rounded=0;" vertex="1" parent="1">
          <mxGeometry x="855" y="210" width="120" height="20" as="geometry" />
        </mxCell>
        <mxCell id="1v00uaq_smpLzd8h27oc-209" value="updated_at" style="rounded=0;whiteSpace=wrap;html=1;fillColor=#f8cecc;strokeColor=#b85450;" vertex="1" parent="1">
          <mxGeometry x="855" y="230" width="120" height="20" as="geometry" />
        </mxCell>
        <mxCell id="1v00uaq_smpLzd8h27oc-210" value="PK" style="text;html=1;strokeColor=#6c8ebf;fillColor=#dae8fc;align=center;verticalAlign=middle;whiteSpace=wrap;rounded=0;" vertex="1" parent="1">
          <mxGeometry x="815" y="130" width="40" height="20" as="geometry" />
        </mxCell>
        <mxCell id="1v00uaq_smpLzd8h27oc-212" value="timestamp&lt;br&gt;" style="text;html=1;strokeColor=#6c8ebf;fillColor=#dae8fc;align=center;verticalAlign=middle;whiteSpace=wrap;rounded=0;" vertex="1" parent="1">
          <mxGeometry x="790" y="210" width="65" height="20" as="geometry" />
        </mxCell>
        <mxCell id="1v00uaq_smpLzd8h27oc-213" value="timestamp&lt;br&gt;" style="text;html=1;strokeColor=#6c8ebf;fillColor=#dae8fc;align=center;verticalAlign=middle;whiteSpace=wrap;rounded=0;" vertex="1" parent="1">
          <mxGeometry x="790" y="230" width="65" height="20" as="geometry" />
        </mxCell>
        <mxCell id="1v00uaq_smpLzd8h27oc-217" value="varchar" style="text;html=1;strokeColor=#6c8ebf;fillColor=#dae8fc;align=center;verticalAlign=middle;whiteSpace=wrap;rounded=0;" vertex="1" parent="1">
          <mxGeometry x="805" y="150" width="50" height="20" as="geometry" />
        </mxCell>
        <mxCell id="1v00uaq_smpLzd8h27oc-218" value="varchar" style="text;html=1;strokeColor=#6c8ebf;fillColor=#dae8fc;align=center;verticalAlign=middle;whiteSpace=wrap;rounded=0;" vertex="1" parent="1">
          <mxGeometry x="805" y="170" width="50" height="20" as="geometry" />
        </mxCell>
        <mxCell id="1v00uaq_smpLzd8h27oc-219" value="varchar" style="text;html=1;strokeColor=#6c8ebf;fillColor=#dae8fc;align=center;verticalAlign=middle;whiteSpace=wrap;rounded=0;" vertex="1" parent="1">
          <mxGeometry x="805" y="190" width="50" height="20" as="geometry" />
        </mxCell>
        <mxCell id="1v00uaq_smpLzd8h27oc-221" value="" style="rounded=0;whiteSpace=wrap;html=1;fillColor=#f8cecc;strokeColor=#b85450;" vertex="1" parent="1">
          <mxGeometry x="1085" y="320" width="120" height="20" as="geometry" />
        </mxCell>
        <mxCell id="1v00uaq_smpLzd8h27oc-222" value="" style="rounded=0;whiteSpace=wrap;html=1;fillColor=#d5e8d4;strokeColor=#82b366;" vertex="1" parent="1">
          <mxGeometry x="1085" y="300" width="120" height="20" as="geometry" />
        </mxCell>
        <mxCell id="1v00uaq_smpLzd8h27oc-223" value="" style="rounded=0;whiteSpace=wrap;html=1;fillColor=#f8cecc;strokeColor=#b85450;" vertex="1" parent="1">
          <mxGeometry x="1085" y="340" width="120" height="20" as="geometry" />
        </mxCell>
        <mxCell id="1v00uaq_smpLzd8h27oc-256" style="edgeStyle=orthogonalEdgeStyle;rounded=0;orthogonalLoop=1;jettySize=auto;html=1;exitX=1;exitY=0.5;exitDx=0;exitDy=0;entryX=1;entryY=0.5;entryDx=0;entryDy=0;" edge="1" parent="1" source="1v00uaq_smpLzd8h27oc-224" target="1v00uaq_smpLzd8h27oc-244">
          <mxGeometry relative="1" as="geometry">
            <Array as="points">
              <mxPoint x="1350" y="370" />
              <mxPoint x="1350" y="270" />
              <mxPoint x="1635" y="270" />
              <mxPoint x="1635" y="350" />
            </Array>
          </mxGeometry>
        </mxCell>
        <mxCell id="1v00uaq_smpLzd8h27oc-224" value="role_id" style="rounded=0;whiteSpace=wrap;html=1;fillColor=#f8cecc;strokeColor=#b85450;" vertex="1" parent="1">
          <mxGeometry x="1085" y="360" width="120" height="20" as="geometry" />
        </mxCell>
        <mxCell id="1v00uaq_smpLzd8h27oc-225" value="id" style="text;html=1;strokeColor=none;fillColor=none;align=center;verticalAlign=middle;whiteSpace=wrap;rounded=0;" vertex="1" parent="1">
          <mxGeometry x="1085" y="320" width="120" height="20" as="geometry" />
        </mxCell>
        <mxCell id="1v00uaq_smpLzd8h27oc-239" style="edgeStyle=orthogonalEdgeStyle;rounded=0;orthogonalLoop=1;jettySize=auto;html=1;exitX=1;exitY=0.5;exitDx=0;exitDy=0;entryX=1;entryY=0.5;entryDx=0;entryDy=0;" edge="1" parent="1" source="1v00uaq_smpLzd8h27oc-226" target="1v00uaq_smpLzd8h27oc-202">
          <mxGeometry relative="1" as="geometry" />
        </mxCell>
        <mxCell id="1v00uaq_smpLzd8h27oc-226" value="user_id" style="text;html=1;strokeColor=none;fillColor=none;align=center;verticalAlign=middle;whiteSpace=wrap;rounded=0;" vertex="1" parent="1">
          <mxGeometry x="1085" y="340" width="120" height="20" as="geometry" />
        </mxCell>
        <mxCell id="1v00uaq_smpLzd8h27oc-227" value="user_roles" style="text;html=1;strokeColor=none;fillColor=none;align=center;verticalAlign=middle;whiteSpace=wrap;rounded=0;" vertex="1" parent="1">
          <mxGeometry x="1085" y="300" width="120" height="20" as="geometry" />
        </mxCell>
        <mxCell id="1v00uaq_smpLzd8h27oc-230" value="" style="rounded=0;whiteSpace=wrap;html=1;fillColor=#f8cecc;strokeColor=#b85450;" vertex="1" parent="1">
          <mxGeometry x="1085" y="380" width="120" height="20" as="geometry" />
        </mxCell>
        <mxCell id="1v00uaq_smpLzd8h27oc-231" value="created_at" style="text;html=1;strokeColor=none;fillColor=none;align=center;verticalAlign=middle;whiteSpace=wrap;rounded=0;" vertex="1" parent="1">
          <mxGeometry x="1085" y="380" width="120" height="20" as="geometry" />
        </mxCell>
        <mxCell id="1v00uaq_smpLzd8h27oc-232" value="updated_at" style="rounded=0;whiteSpace=wrap;html=1;fillColor=#f8cecc;strokeColor=#b85450;" vertex="1" parent="1">
          <mxGeometry x="1085" y="400" width="120" height="20" as="geometry" />
        </mxCell>
        <mxCell id="1v00uaq_smpLzd8h27oc-233" value="PK" style="text;html=1;strokeColor=#6c8ebf;fillColor=#dae8fc;align=center;verticalAlign=middle;whiteSpace=wrap;rounded=0;" vertex="1" parent="1">
          <mxGeometry x="1045" y="320" width="40" height="20" as="geometry" />
        </mxCell>
        <mxCell id="1v00uaq_smpLzd8h27oc-234" value="timestamp&lt;br&gt;" style="text;html=1;strokeColor=#6c8ebf;fillColor=#dae8fc;align=center;verticalAlign=middle;whiteSpace=wrap;rounded=0;" vertex="1" parent="1">
          <mxGeometry x="1020" y="380" width="65" height="20" as="geometry" />
        </mxCell>
        <mxCell id="1v00uaq_smpLzd8h27oc-235" value="timestamp&lt;br&gt;" style="text;html=1;strokeColor=#6c8ebf;fillColor=#dae8fc;align=center;verticalAlign=middle;whiteSpace=wrap;rounded=0;" vertex="1" parent="1">
          <mxGeometry x="1020" y="400" width="65" height="20" as="geometry" />
        </mxCell>
        <mxCell id="1v00uaq_smpLzd8h27oc-236" value="FK" style="text;html=1;strokeColor=#6c8ebf;fillColor=#dae8fc;align=center;verticalAlign=middle;whiteSpace=wrap;rounded=0;" vertex="1" parent="1">
          <mxGeometry x="1035" y="340" width="50" height="20" as="geometry" />
        </mxCell>
        <mxCell id="1v00uaq_smpLzd8h27oc-237" value="FK" style="text;html=1;strokeColor=#6c8ebf;fillColor=#dae8fc;align=center;verticalAlign=middle;whiteSpace=wrap;rounded=0;" vertex="1" parent="1">
          <mxGeometry x="1035" y="360" width="50" height="20" as="geometry" />
        </mxCell>
        <mxCell id="1v00uaq_smpLzd8h27oc-240" value="" style="rounded=0;whiteSpace=wrap;html=1;fillColor=#f8cecc;strokeColor=#b85450;" vertex="1" parent="1">
          <mxGeometry x="1495" y="340" width="120" height="20" as="geometry" />
        </mxCell>
        <mxCell id="1v00uaq_smpLzd8h27oc-241" value="" style="rounded=0;whiteSpace=wrap;html=1;fillColor=#d5e8d4;strokeColor=#82b366;" vertex="1" parent="1">
          <mxGeometry x="1495" y="320" width="120" height="20" as="geometry" />
        </mxCell>
        <mxCell id="1v00uaq_smpLzd8h27oc-243" value="name" style="rounded=0;whiteSpace=wrap;html=1;fillColor=#f8cecc;strokeColor=#b85450;" vertex="1" parent="1">
          <mxGeometry x="1495" y="360" width="120" height="20" as="geometry" />
        </mxCell>
        <mxCell id="1v00uaq_smpLzd8h27oc-244" value="id" style="text;html=1;strokeColor=none;fillColor=none;align=center;verticalAlign=middle;whiteSpace=wrap;rounded=0;" vertex="1" parent="1">
          <mxGeometry x="1495" y="340" width="120" height="20" as="geometry" />
        </mxCell>
        <mxCell id="1v00uaq_smpLzd8h27oc-246" value="roles" style="text;html=1;strokeColor=none;fillColor=none;align=center;verticalAlign=middle;whiteSpace=wrap;rounded=0;" vertex="1" parent="1">
          <mxGeometry x="1495" y="320" width="120" height="20" as="geometry" />
        </mxCell>
        <mxCell id="1v00uaq_smpLzd8h27oc-247" value="" style="rounded=0;whiteSpace=wrap;html=1;fillColor=#f8cecc;strokeColor=#b85450;" vertex="1" parent="1">
          <mxGeometry x="1495" y="380" width="120" height="20" as="geometry" />
        </mxCell>
        <mxCell id="1v00uaq_smpLzd8h27oc-248" value="created_at" style="text;html=1;strokeColor=none;fillColor=none;align=center;verticalAlign=middle;whiteSpace=wrap;rounded=0;" vertex="1" parent="1">
          <mxGeometry x="1495" y="380" width="120" height="20" as="geometry" />
        </mxCell>
        <mxCell id="1v00uaq_smpLzd8h27oc-249" value="updated_at" style="rounded=0;whiteSpace=wrap;html=1;fillColor=#f8cecc;strokeColor=#b85450;" vertex="1" parent="1">
          <mxGeometry x="1495" y="400" width="120" height="20" as="geometry" />
        </mxCell>
        <mxCell id="1v00uaq_smpLzd8h27oc-250" value="PK" style="text;html=1;strokeColor=#6c8ebf;fillColor=#dae8fc;align=center;verticalAlign=middle;whiteSpace=wrap;rounded=0;" vertex="1" parent="1">
          <mxGeometry x="1455" y="340" width="40" height="20" as="geometry" />
        </mxCell>
        <mxCell id="1v00uaq_smpLzd8h27oc-251" value="timestamp&lt;br&gt;" style="text;html=1;strokeColor=#6c8ebf;fillColor=#dae8fc;align=center;verticalAlign=middle;whiteSpace=wrap;rounded=0;" vertex="1" parent="1">
          <mxGeometry x="1430" y="380" width="65" height="20" as="geometry" />
        </mxCell>
        <mxCell id="1v00uaq_smpLzd8h27oc-252" value="timestamp&lt;br&gt;" style="text;html=1;strokeColor=#6c8ebf;fillColor=#dae8fc;align=center;verticalAlign=middle;whiteSpace=wrap;rounded=0;" vertex="1" parent="1">
          <mxGeometry x="1430" y="400" width="65" height="20" as="geometry" />
        </mxCell>
        <mxCell id="1v00uaq_smpLzd8h27oc-255" value="varchar" style="text;html=1;strokeColor=#6c8ebf;fillColor=#dae8fc;align=center;verticalAlign=middle;whiteSpace=wrap;rounded=0;" vertex="1" parent="1">
          <mxGeometry x="1445" y="360" width="50" height="20" as="geometry" />
        </mxCell>
        <mxCell id="1v00uaq_smpLzd8h27oc-259" value="" style="rounded=0;whiteSpace=wrap;html=1;fillColor=#f8cecc;strokeColor=#b85450;" vertex="1" parent="1">
          <mxGeometry x="707" y="850" width="120" height="20" as="geometry" />
        </mxCell>
        <mxCell id="1v00uaq_smpLzd8h27oc-260" value="" style="rounded=0;whiteSpace=wrap;html=1;fillColor=#d5e8d4;strokeColor=#82b366;" vertex="1" parent="1">
          <mxGeometry x="707" y="830" width="120" height="20" as="geometry" />
        </mxCell>
        <mxCell id="1v00uaq_smpLzd8h27oc-262" value="id" style="text;html=1;strokeColor=none;fillColor=none;align=center;verticalAlign=middle;whiteSpace=wrap;rounded=0;" vertex="1" parent="1">
          <mxGeometry x="707" y="850" width="120" height="20" as="geometry" />
        </mxCell>
        <mxCell id="1v00uaq_smpLzd8h27oc-263" value="task_log_actions" style="text;html=1;strokeColor=none;fillColor=none;align=center;verticalAlign=middle;whiteSpace=wrap;rounded=0;" vertex="1" parent="1">
          <mxGeometry x="707" y="830" width="120" height="20" as="geometry" />
        </mxCell>
        <mxCell id="1v00uaq_smpLzd8h27oc-264" value="" style="rounded=0;whiteSpace=wrap;html=1;fillColor=#f8cecc;strokeColor=#b85450;" vertex="1" parent="1">
          <mxGeometry x="707" y="910" width="120" height="20" as="geometry" />
        </mxCell>
        <mxCell id="1v00uaq_smpLzd8h27oc-265" value="created_at" style="text;html=1;strokeColor=none;fillColor=none;align=center;verticalAlign=middle;whiteSpace=wrap;rounded=0;" vertex="1" parent="1">
          <mxGeometry x="707" y="910" width="120" height="20" as="geometry" />
        </mxCell>
        <mxCell id="1v00uaq_smpLzd8h27oc-266" value="updated_at" style="rounded=0;whiteSpace=wrap;html=1;fillColor=#f8cecc;strokeColor=#b85450;" vertex="1" parent="1">
          <mxGeometry x="707" y="930" width="120" height="20" as="geometry" />
        </mxCell>
        <mxCell id="1v00uaq_smpLzd8h27oc-267" value="PK" style="text;html=1;strokeColor=#6c8ebf;fillColor=#dae8fc;align=center;verticalAlign=middle;whiteSpace=wrap;rounded=0;" vertex="1" parent="1">
          <mxGeometry x="667" y="850" width="40" height="20" as="geometry" />
        </mxCell>
        <mxCell id="1v00uaq_smpLzd8h27oc-268" value="timestamp&lt;br&gt;" style="text;html=1;strokeColor=#6c8ebf;fillColor=#dae8fc;align=center;verticalAlign=middle;whiteSpace=wrap;rounded=0;" vertex="1" parent="1">
          <mxGeometry x="642" y="910" width="65" height="20" as="geometry" />
        </mxCell>
        <mxCell id="1v00uaq_smpLzd8h27oc-269" value="timestamp&lt;br&gt;" style="text;html=1;strokeColor=#6c8ebf;fillColor=#dae8fc;align=center;verticalAlign=middle;whiteSpace=wrap;rounded=0;" vertex="1" parent="1">
          <mxGeometry x="642" y="930" width="65" height="20" as="geometry" />
        </mxCell>
        <mxCell id="1v00uaq_smpLzd8h27oc-275" style="edgeStyle=orthogonalEdgeStyle;rounded=0;orthogonalLoop=1;jettySize=auto;html=1;exitX=1;exitY=0.5;exitDx=0;exitDy=0;entryX=1;entryY=0.5;entryDx=0;entryDy=0;" edge="1" parent="1" source="1v00uaq_smpLzd8h27oc-271" target="1v00uaq_smpLzd8h27oc-143">
          <mxGeometry relative="1" as="geometry" />
        </mxCell>
        <mxCell id="1v00uaq_smpLzd8h27oc-271" value="action_id" style="rounded=0;whiteSpace=wrap;html=1;fillColor=#f8cecc;strokeColor=#b85450;" vertex="1" parent="1">
          <mxGeometry x="707" y="890" width="120" height="20" as="geometry" />
        </mxCell>
        <mxCell id="1v00uaq_smpLzd8h27oc-276" style="edgeStyle=orthogonalEdgeStyle;rounded=0;orthogonalLoop=1;jettySize=auto;html=1;exitX=1;exitY=0.5;exitDx=0;exitDy=0;entryX=1;entryY=0.75;entryDx=0;entryDy=0;" edge="1" parent="1" source="1v00uaq_smpLzd8h27oc-272" target="1v00uaq_smpLzd8h27oc-162">
          <mxGeometry relative="1" as="geometry" />
        </mxCell>
        <mxCell id="1v00uaq_smpLzd8h27oc-272" value="task_log_id" style="rounded=0;whiteSpace=wrap;html=1;fillColor=#f8cecc;strokeColor=#b85450;" vertex="1" parent="1">
          <mxGeometry x="707" y="870" width="120" height="20" as="geometry" />
        </mxCell>
        <mxCell id="1v00uaq_smpLzd8h27oc-273" value="FK" style="text;html=1;strokeColor=#6c8ebf;fillColor=#dae8fc;align=center;verticalAlign=middle;whiteSpace=wrap;rounded=0;" vertex="1" parent="1">
          <mxGeometry x="667" y="870" width="40" height="20" as="geometry" />
        </mxCell>
        <mxCell id="1v00uaq_smpLzd8h27oc-274" value="FK" style="text;html=1;strokeColor=#6c8ebf;fillColor=#dae8fc;align=center;verticalAlign=middle;whiteSpace=wrap;rounded=0;" vertex="1" parent="1">
          <mxGeometry x="667" y="890" width="40" height="20" as="geometry" />
        </mxCell>
      </root>
    </mxGraphModel>
  </diagram>
</mxfile>
